<?xml version="1.0" standalone="no"?>
<svg xmlns="http://www.w3.org/2000/svg" viewBox="0 0 137.448 36" width="137.448" height="36"><g fill="#DA0A01" color="#DA0A01" transform="translate(109.448, 3.9999999999999982) scale(0.2800001)"><svg width="100.0" height="100.0" x="0.0" y="0.0" viewBox="0 0 100 100"><path d="M16.758,51.75c3.148-4.127,10.652-6.662,16.579-6.888c0.266-0.01,0.493-0.172,0.589-0.42l2.72-7.01  c0.2-0.516-0.274-1.055-0.806-0.897c-9.368,2.772-20.159,9.513-24.472,15.326c0.436-0.065,0.879-0.111,1.333-0.111H16.758z   M19.899,53h-7.198C8.448,53,5,56.449,5,60.703v1.089c0,0.512,0.414,0.925,0.924,0.925h13.598c-0.768-1.344-1.213-2.895-1.213-4.551  C18.309,56.254,18.896,54.475,19.899,53z M92.404,50.695c0.625-0.109,1.111-0.632,1.111-1.29v-2.339c0-0.738-0.6-1.336-1.338-1.336  h-5.438v3.245c0.102-0.004,0.202-0.015,0.303-0.015C89.043,48.96,90.891,49.608,92.404,50.695z M36.724,58.166  c0,0.982-0.158,1.926-0.443,2.812h3.172v-4.676h-2.919C36.658,56.905,36.724,57.528,36.724,58.166z M77.851,57.859  c0.067-2.028,0.79-3.889,1.966-5.38v-4.695c-1.004-0.349-1.82-1.091-2.253-2.054c-0.214-0.477-0.338-1.003-0.338-1.56  s0.124-1.082,0.338-1.56h-1.559l-1.257,3.12l-2.25,5.588l2.403-0.08l0.051-0.002h0.021c0.651,0,1.256,0.295,1.658,0.807  c0.4,0.514,0.542,1.17,0.387,1.804l-0.987,4.013l-0.769,3.119h3.016c-0.284-0.887-0.443-1.83-0.443-2.812  C77.834,58.062,77.847,57.961,77.851,57.859z M41.91,52.357L39.533,47.6l1.271-1.118c-0.051-0.105-0.108-0.208-0.149-0.317  l-1.052-2.781l-7.645,6.723c0.934,0.517,1.763,1.193,2.462,1.988l2.69-2.364l2.348,4.698c0.025-1.119,0.906-2.019,2.03-2.057  L41.91,52.357z M41.823,45.722c0.405,1.073,1.429,1.734,2.513,1.734c0.314,0,0.634-0.055,0.945-0.173h0.001  c1.383-0.525,2.083-2.077,1.56-3.459l-1.851-4.895c-0.253-0.671-0.753-1.204-1.406-1.498c-0.352-0.159-0.726-0.239-1.1-0.239  c-0.321,0-0.643,0.059-0.952,0.176c-0.671,0.252-1.202,0.752-1.497,1.405s-0.317,1.382-0.064,2.053L41.823,45.722z M41.973,39.646  c0.061-0.135,0.171-0.239,0.312-0.292c0.064-0.024,0.131-0.037,0.198-0.037c0.078,0,0.155,0.018,0.228,0.05  c0.136,0.061,0.239,0.171,0.292,0.311l1.851,4.896c0.109,0.288-0.037,0.61-0.325,0.72c-0.064,0.024-0.13,0.036-0.194,0.036  c-0.226,0-0.439-0.138-0.524-0.36l-1.851-4.896C41.907,39.934,41.912,39.783,41.973,39.646z M27.517,50.21  c-4.396,0-7.958,3.562-7.958,7.956c0,4.396,3.562,7.958,7.958,7.958c4.395,0,7.958-3.562,7.958-7.958  C35.474,53.771,31.911,50.21,27.517,50.21z M27.517,62.418c-2.345,0-4.252-1.906-4.252-4.252c0-2.344,1.907-4.25,4.252-4.25  c2.344,0,4.251,1.906,4.251,4.25C31.768,60.512,29.861,62.418,27.517,62.418z M27.517,55.166c-1.658,0-3.002,1.343-3.002,3  c0,1.658,1.344,3.002,3.002,3.002c1.658,0,3.001-1.344,3.001-3.002C30.518,56.509,29.174,55.166,27.517,55.166z M81.066,51.176  c1.236-1.058,2.753-1.79,4.423-2.075v-4.014c0-0.391-0.245-0.718-0.589-0.851c-0.036,2.087-1.738,3.776-3.834,3.776V51.176z   M87.042,50.21c-4.395,0-7.958,3.562-7.958,7.956c0,4.396,3.563,7.958,7.958,7.958c4.396,0,7.958-3.562,7.958-7.958  C95,53.771,91.438,50.21,87.042,50.21z M87.042,62.418c-2.345,0-4.251-1.906-4.251-4.252c0-2.344,1.906-4.25,4.251-4.25  s4.252,1.906,4.252,4.25C91.294,60.512,89.387,62.418,87.042,62.418z M87.042,55.166c-1.657,0-3.001,1.343-3.001,3  c0,1.658,1.344,3.002,3.001,3.002c1.658,0,3.002-1.344,3.002-3.002C90.044,56.509,88.7,55.166,87.042,55.166z M81.066,46.762  c1.432,0,2.591-1.161,2.591-2.592s-1.159-2.59-2.591-2.59c-1.43,0-2.591,1.16-2.591,2.59S79.637,46.762,81.066,46.762z   M46.397,49.747c-1.42,0-2.617,1.082-2.989,2.559l27.724-0.94l5.716-14.195c0.257-1-0.227-2.051-1.104-2.39l-2.051-0.797  c-0.187-0.072-0.378-0.107-0.568-0.107c-0.487,0-0.963,0.23-1.299,0.655L60.352,49.027c-0.676,0.854-1.646,1.34-2.657,1.34  c-0.059,0-0.117-0.001-0.176-0.005l-10.964-0.61C46.502,49.749,46.45,49.747,46.397,49.747z M74.973,52.486c-0.01,0-0.02,0-0.029,0  L41.53,53.621c-0.461,0.016-0.827,0.394-0.827,0.855v7.384c0,0.474,0.383,0.856,0.856,0.856h31.316c0.394,0,0.737-0.27,0.831-0.651  l2.096-8.519C75.938,53.006,75.525,52.486,74.973,52.486z"></path></svg></g><path fill="#000000" fill-rule="nonzero" d="M0 9.19L0 9.19L0 7.08Q0 3.74 1.75 1.87Q3.50 0 6.60 0Q9.70 0 11.57 1.87L11.57 1.87Q12.89 3.19 12.89 5.83L12.89 5.83L9.77 5.83Q9.77 2.98 6.72 2.98L6.72 2.98Q5.81 2.98 5.17 3.32Q4.54 3.67 4.22 4.13Q3.91 4.58 3.74 5.47Q3.58 6.36 3.55 6.96Q3.53 7.56 3.53 8.57Q3.53 9.58 3.54 9.92Q3.55 10.27 3.61 11.05Q3.67 11.83 3.80 12.17Q3.94 12.50 4.19 13.03Q4.44 13.56 4.82 13.78L4.82 13.78Q5.81 14.40 7.06 14.40L7.06 14.40Q9.14 14.40 10.01 12.62L10.01 12.62L10.01 11.47L7.94 11.47L7.94 8.69L12.86 8.69L12.86 13.85Q12.12 15.60 10.51 16.49Q8.90 17.38 6.86 17.38L6.86 17.38Q3.24 17.38 1.62 15.35Q0 13.32 0 9.19ZM23.52 11.04L23.52 11.04L23.52 9.79Q23.52 8.02 23.00 7.08Q22.49 6.14 20.86 6.14L20.86 6.14Q18.22 6.14 18.22 9.70L18.22 9.70L18.22 10.94Q18.22 14.76 20.86 14.76L20.86 14.76Q22.56 14.76 23.09 13.49L23.09 13.49Q23.52 12.48 23.52 11.04ZM26.64 10.32L26.64 10.32Q26.64 14.76 24.96 16.27L24.96 16.27Q23.54 17.57 20.86 17.57L20.86 17.57Q17.42 17.57 16.22 15.55L16.22 15.55Q15.10 13.70 15.10 10.32L15.10 10.32Q15.10 7.15 16.22 5.35L16.22 5.35Q17.47 3.34 20.77 3.34Q24.07 3.34 25.36 5.10Q26.64 6.86 26.64 10.32ZM28.32 9.19L28.32 9.19L28.32 7.08Q28.32 3.74 30.07 1.87Q31.82 0 34.92 0Q38.02 0 39.89 1.87L39.89 1.87Q41.21 3.19 41.21 5.83L41.21 5.83L38.09 5.83Q38.09 2.98 35.04 2.98L35.04 2.98Q34.13 2.98 33.49 3.32Q32.86 3.67 32.54 4.13Q32.23 4.58 32.06 5.47Q31.90 6.36 31.87 6.96Q31.85 7.56 31.85 8.57Q31.85 9.58 31.86 9.92Q31.87 10.27 31.93 11.05Q31.99 11.83 32.12 12.17Q32.26 12.50 32.51 13.03Q32.76 13.56 33.14 13.78L33.14 13.78Q34.13 14.40 35.38 14.40L35.38 14.40Q37.46 14.40 38.33 12.62L38.33 12.62L38.33 11.47L36.26 11.47L36.26 8.69L41.18 8.69L41.18 13.85Q40.44 15.60 38.83 16.49Q37.22 17.38 35.18 17.38L35.18 17.38Q31.56 17.38 29.94 15.35Q28.32 13.32 28.32 9.19ZM51.84 11.04L51.84 11.04L51.84 9.79Q51.84 8.02 51.32 7.08Q50.81 6.14 49.18 6.14L49.18 6.14Q46.54 6.14 46.54 9.70L46.54 9.70L46.54 10.94Q46.54 14.76 49.18 14.76L49.18 14.76Q50.88 14.76 51.41 13.49L51.41 13.49Q51.84 12.48 51.84 11.04ZM54.96 10.32L54.96 10.32Q54.96 14.76 53.28 16.27L53.28 16.27Q51.86 17.57 49.18 17.57L49.18 17.57Q45.74 17.57 44.54 15.55L44.54 15.55Q43.42 13.70 43.42 10.32L43.42 10.32Q43.42 7.15 44.54 5.35L44.54 5.35Q45.79 3.34 49.09 3.34Q52.39 3.34 53.68 5.10Q54.96 6.86 54.96 10.32ZM70.85 0.14L65.40 8.18L71.28 17.23L67.39 17.23L63.36 10.78L61.03 13.90L61.03 17.23L57.70 17.23L57.70 0.14L61.03 0.14L61.03 9.70L67.49 0.14L70.85 0.14ZM82.85 3.43L82.85 17.23L80.76 17.23L79.80 15.58L76.46 17.38Q73.68 17.38 72.72 15.36L72.72 15.36Q72.24 14.38 72.06 13.24Q71.88 12.10 71.88 10.86Q71.88 9.62 71.90 9.04Q71.93 8.45 72.02 7.67Q72.12 6.89 72.30 6.36Q72.48 5.83 72.82 5.27Q73.15 4.70 73.63 4.37L73.63 4.37Q74.71 3.62 76.44 3.62L76.44 3.62L79.73 3.62L82.85 3.43ZM77.35 14.09L79.73 12.86L79.73 6.43L77.35 6.43Q76.03 6.43 75.52 7.44Q75.00 8.45 75.00 10.45Q75.00 12.46 75.49 13.27Q75.98 14.09 77.35 14.09L77.35 14.09ZM93.50 3.58L93.50 3.58L92.64 6.65Q92.28 6.50 91.82 6.50L91.82 6.50Q90.62 6.50 88.87 7.54L88.87 7.54L88.87 17.23L85.75 17.23L85.75 3.53L88.08 3.53L88.80 4.73L92.11 3.36Q92.35 3.34 92.76 3.34Q93.17 3.34 93.50 3.58ZM101.45 14.59L101.45 17.23L99.50 17.23Q97.73 17.23 96.80 16.18Q95.88 15.12 95.88 13.66L95.88 13.66L95.88 6.46L94.56 6.46L94.56 4.08L95.88 4.08L95.88 1.39L99.00 1.39L99.00 4.08L101.21 4.08L101.21 6.46L99.00 6.46L99.00 13.46Q99.00 14.59 100.08 14.59L100.08 14.59L101.45 14.59Z" transform="translate(0, 9.217)"></path></svg>